<svg fill="#fff" height="512pt" viewBox="0 -70 512 512" width="512pt" xmlns="http://www.w3.org/2000/svg"><path d="m507.605469 140.964844-80.332031-80.335938c-2.8125-2.816406-6.628907-4.394531-10.605469-4.394531h-65.335938v-1.070313c0-30.417968-24.746093-55.164062-55.164062-55.164062h-241c-30.421875 0-55.167969 24.746094-55.167969 55.164062v200.839844c0 30.417969 24.746094 55.160156 55.167969 55.160156h10.605469c6.96875 34.335938 37.382812 60.257813 73.742187 60.257813 36.355469 0 66.773437-25.921875 73.746094-60.257813h85.476562c6.972657 34.335938 37.386719 60.257813 73.746094 60.257813s66.773437-25.921875 73.746094-60.257813h50.769531c8.285156 0 15-6.714843 15-15v-144.59375c0-3.980468-1.578125-7.792968-4.394531-10.605468zm-97.152344-54.730469 50.335937 50.335937h-109.457031v-50.335937zm-380.453125 169.769531v-200.839844c0-13.875 11.289062-25.164062 25.167969-25.164062h241c13.875 0 25.164062 11.289062 25.164062 25.164062v185.878907c-11.3125 10.503906-19.40625 24.429687-22.59375 40.121093h-85.476562c-6.972657-34.328124-37.390625-60.25-73.746094-60.25s-66.769531 25.921876-73.742187 60.25h-10.605469c-13.878907 0-25.167969-11.285156-25.167969-25.160156zm109.515625 85.417969c-24.949219 0-45.246094-20.304687-45.246094-45.257813 0-24.949218 20.296875-45.25 45.246094-45.25 24.953125 0 45.25 20.300782 45.25 45.25 0 24.953126-20.300781 45.257813-45.25 45.257813zm232.96875 0c-24.953125 0-45.25-20.304687-45.25-45.257813 0-24.949218 20.296875-45.25 45.25-45.25 24.949219 0 45.25 20.300782 45.25 45.25 0 24.953126-20.300781 45.257813-45.25 45.257813zm73.746094-60.257813c-6.972657-34.328124-37.386719-60.25-73.746094-60.25-7.34375 0-14.4375 1.078126-21.152344 3.050782v-57.394532h130.667969v114.597657h-35.769531zm0 0"/></svg>